<?xml version="1.0" encoding="UTF-8" standalone="no"?>
<svg
   version="1.1"
   x="0px"
   y="0px"
   viewBox="0 0 90 90"
   enable-background="new 0 0 100 100"
   xml:space="preserve"
   id="svg34"
   sodipodi:docname="noun_Sun_139165.svg"
   width="90"
   height="90"
   inkscape:version="1.1.1 (3bf5ae0d25, 2021-09-20)"
   xmlns:inkscape="http://www.inkscape.org/namespaces/inkscape"
   xmlns:sodipodi="http://sodipodi.sourceforge.net/DTD/sodipodi-0.dtd"
   xmlns="http://www.w3.org/2000/svg"
   xmlns:svg="http://www.w3.org/2000/svg"><defs
     id="defs38" /><sodipodi:namedview
     id="namedview36"
     pagecolor="#ffffff"
     bordercolor="#666666"
     borderopacity="1.0"
     inkscape:pageshadow="2"
     inkscape:pageopacity="0.0"
     inkscape:pagecheckerboard="0"
     showgrid="false"
     fit-margin-top="0"
     fit-margin-left="0"
     fit-margin-right="0"
     fit-margin-bottom="0"
     inkscape:zoom="5.328"
     inkscape:cx="44.951201"
     inkscape:cy="62.593844"
     inkscape:window-width="1920"
     inkscape:window-height="1015"
     inkscape:window-x="0"
     inkscape:window-y="0"
     inkscape:window-maximized="1"
     inkscape:current-layer="svg34" /><path
     fill="#000000"
     d="m 73.3,52.95 c 4.4,-15.6 -4.7,-31.9 -20.3,-36.3 -2.6,-0.7 -5.3,-1.1 -8,-1.1 -13.1,0 -24.7,8.8 -28.3,21.4 -2.1,7.6 -1.2,15.5 2.6,22.4 3.8,6.9 10.1,11.8 17.7,14 2.6,0.7 5.3,1.1 8,1.1 13.1,-0.1 24.7,-8.9 28.3,-21.5 z"
     id="path2"
     style="fill:#ffcc00" /><path
     fill="#000000"
     d="m 44.6,12.75 c 0.8,0 1.4,-0.6 1.4,-1.4 v -10 c 0,-0.8 -0.7,-1.4 -1.4,-1.4 -0.8,0 -1.4,0.6 -1.4,1.4 v 10.1 c 0,0.7 0.6,1.3 1.4,1.3 z"
     id="path4"
     style="fill:#ffcc00" /><path
     fill="#000000"
     d="m 26.7,16.75 c 0.2,0.4 0.7,0.7 1.2,0.7 0.2,0 0.5,-0.1 0.7,-0.2 0.6,-0.4 0.9,-1.2 0.5,-1.9 L 24,6.65 c -0.4,-0.7 -1.2,-0.9 -1.9,-0.5 -0.6,0.4 -0.9,1.2 -0.5,1.9 z"
     id="path6"
     style="fill:#ffcc00" /><path
     fill="#000000"
     d="m 6.3,24.65 8.7,5.1 c 0.2,0.1 0.4,0.2 0.7,0.2 0.5,0 0.9,-0.2 1.2,-0.7 0.4,-0.6 0.2,-1.5 -0.5,-1.9 l -8.7,-5.1 c -0.6,-0.4 -1.5,-0.2 -1.9,0.5 -0.3,0.7 -0.1,1.5 0.5,1.9 z"
     id="path8"
     style="fill:#ffcc00" /><path
     fill="#000000"
     d="m 12.8,45.35 c 0,-0.8 -0.6,-1.4 -1.4,-1.4 h -10 c -0.8,0 -1.4,0.7 -1.4,1.4 0,0.8 0.6,1.4 1.4,1.4 h 10.1 c 0.7,0 1.3,-0.6 1.3,-1.4 z"
     id="path10"
     style="fill:#ffcc00" /><path
     fill="#000000"
     d="m 15.5,60.85 -8.8,5.1 c -0.6,0.4 -0.9,1.2 -0.5,1.9 0.2,0.4 0.7,0.7 1.2,0.7 0.2,0 0.5,-0.1 0.7,-0.2 l 8.7,-5.1 c 0.6,-0.4 0.9,-1.2 0.5,-1.9 -0.3,-0.6 -1.2,-0.8 -1.8,-0.5 z"
     id="path12"
     style="fill:#ffcc00" /><path
     fill="#000000"
     d="m 29.3,73.05 c -0.6,-0.4 -1.5,-0.2 -1.9,0.5 l -5.1,8.7 c -0.4,0.6 -0.2,1.5 0.5,1.9 0.2,0.1 0.4,0.2 0.7,0.2 0.5,0 0.9,-0.2 1.2,-0.7 l 5.1,-8.7 c 0.3,-0.7 0.1,-1.6 -0.5,-1.9 z"
     id="path14"
     style="fill:#ffcc00" /><path
     fill="#000000"
     d="m 45.4,77.15 c -0.8,0 -1.4,0.6 -1.4,1.4 v 10.1 c 0,0.8 0.6,1.4 1.4,1.4 0.8,0 1.4,-0.6 1.4,-1.4 v -10.2 c 0,-0.7 -0.6,-1.3 -1.4,-1.3 z"
     id="path16"
     style="fill:#ffcc00" /><path
     fill="#000000"
     d="m 63.3,73.15 c -0.4,-0.7 -1.2,-0.9 -1.9,-0.5 -0.6,0.4 -0.9,1.2 -0.5,1.9 l 5.1,8.7 c 0.2,0.4 0.7,0.7 1.2,0.7 0.2,0 0.5,-0.1 0.7,-0.2 0.6,-0.4 0.9,-1.2 0.5,-1.9 z"
     id="path18"
     style="fill:#ffcc00" /><path
     fill="#000000"
     d="M 83.7,65.25 75,60.15 c -0.6,-0.4 -1.5,-0.2 -1.9,0.5 -0.4,0.6 -0.2,1.5 0.5,1.9 l 8.7,5.1 c 0.2,0.1 0.4,0.2 0.7,0.2 0.5,0 0.9,-0.2 1.2,-0.7 0.3,-0.7 0.1,-1.5 -0.5,-1.9 z"
     id="path20"
     style="fill:#ffcc00" /><path
     fill="#000000"
     d="M 88.6,43.15 H 78.5 c -0.8,0 -1.4,0.6 -1.4,1.4 0,0.8 0.6,1.4 1.4,1.4 h 10.1 c 0.8,0 1.4,-0.6 1.4,-1.4 0,-0.8 -0.6,-1.4 -1.4,-1.4 z"
     id="path22"
     style="fill:#ffcc00" /><path
     fill="#000000"
     d="m 73.8,29.15 c 0.2,0 0.5,-0.1 0.7,-0.2 l 8.7,-5.1 c 0.6,-0.4 0.9,-1.2 0.5,-1.9 -0.4,-0.7 -1.2,-0.9 -1.9,-0.5 l -8.7,5.1 c -0.6,0.4 -0.9,1.2 -0.5,1.9 0.3,0.5 0.8,0.7 1.2,0.7 z"
     id="path24"
     style="fill:#ffcc00" /><path
     fill="#000000"
     d="m 60.7,16.85 c 0.2,0.1 0.4,0.2 0.7,0.2 0.5,0 0.9,-0.2 1.2,-0.7 l 5.1,-8.7 c 0.4,-0.6 0.2,-1.5 -0.5,-1.9 -0.6,-0.4 -1.5,-0.2 -1.9,0.5 l -5.1,8.7 c -0.3,0.7 -0.1,1.6 0.5,1.9 z"
     id="path26"
     style="fill:#ffcc00" /></svg>
