<?xml version="1.0" encoding="UTF-8" standalone="no"?>
<svg
   version="1.1"
   x="0px"
   y="0px"
   viewBox="0 0 90 90"
   enable-background="new 0 0 100 100"
   xml:space="preserve"
   id="svg52"
   sodipodi:docname="noun_Solar Eclipse_139167.svg"
   width="90"
   height="90"
   inkscape:version="1.1.1 (3bf5ae0d25, 2021-09-20)"
   xmlns:inkscape="http://www.inkscape.org/namespaces/inkscape"
   xmlns:sodipodi="http://sodipodi.sourceforge.net/DTD/sodipodi-0.dtd"
   xmlns="http://www.w3.org/2000/svg"
   xmlns:svg="http://www.w3.org/2000/svg"><defs
     id="defs56" /><sodipodi:namedview
     id="namedview54"
     pagecolor="#ffffff"
     bordercolor="#666666"
     borderopacity="1.0"
     inkscape:pageshadow="2"
     inkscape:pageopacity="0.0"
     inkscape:pagecheckerboard="0"
     showgrid="false"
     fit-margin-top="0"
     fit-margin-left="0"
     fit-margin-right="0"
     fit-margin-bottom="0"
     inkscape:zoom="4.4176378"
     inkscape:cx="50.59265"
     inkscape:cy="24.107907"
     inkscape:window-width="1920"
     inkscape:window-height="1015"
     inkscape:window-x="0"
     inkscape:window-y="0"
     inkscape:window-maximized="1"
     inkscape:current-layer="svg52" /><path
     fill="#000000"
     d="m 57.85,16.605472 c 0.2,0.1 0.4,0.1 0.5,0.1 0.5,0 1,-0.3 1.2,-0.8 l 0.1,-0.1 3.9,-9.0000002 c 0.3,-0.7 0,-1.5 -0.7,-1.8 -0.7,-0.3 -1.5,0 -1.8,0.7 l -3.9,9.0000002 -0.1,0.2 c -0.2,0.6 0.1,1.4 0.8,1.7 z"
     id="path2"
     style="fill:#ffcc00" /><path
     fill="#000000"
     d="m 39.65,13.005472 c 0.1,0.7 0.7,1.2 1.3,1.2 0.1,0 0.1,0 0.2,0 0.7,-0.1 1.3,-0.7 1.2,-1.5 v -0.4 l -1.1,-9.5000002 c -0.1,-0.7 -0.8,-1.3 -1.5,-1.2 -0.7,0.1 -1.3,0.7 -1.2,1.5 l 1.1,9.5000002 z"
     id="path4"
     style="fill:#ffcc00" /><path
     fill="#000000"
     d="m 23.15,19.705472 0.4,0.5 c 0.3,0.4 0.7,0.5 1.1,0.5 0.3,0 0.6,-0.1 0.8,-0.3 0.6,-0.4 0.7,-1.3 0.3,-1.9 l -0.4,-0.5 -5.5,-7.5 c -0.4,-0.6000002 -1.3,-0.7000002 -1.9,-0.3 -0.6,0.4 -0.7,1.3 -0.3,1.9 z"
     id="path6"
     style="fill:#ffcc00" /><path
     fill="#000000"
     d="m 4.05,30.505472 8.5,3.7 0.6,0.3 c 0.2,0.1 0.4,0.1 0.5,0.1 0.5,0 1,-0.3 1.2,-0.8 0.3,-0.7 0,-1.5 -0.7,-1.8 l -0.6,-0.3 -8.5,-3.7 c -0.7,-0.3 -1.5,0 -1.8,0.7 -0.1,0.8 0.2,1.5 0.8,1.8 z"
     id="path8"
     style="fill:#ffcc00" /><path
     fill="#000000"
     d="m 11.45,52.005472 c 0.7,-0.1 1.3,-0.7 1.2,-1.5 -0.1,-0.7 -0.8,-1.3 -1.5,-1.2 l -0.6,0.1 -9.3,1.1 c -0.7,0.1 -1.3,0.8 -1.2,1.5 0.1,0.7 0.7,1.2 1.3,1.2 0.1,0 0.1,0 0.2,0 l 9.4,-1.1 z"
     id="path10"
     style="fill:#ffcc00" /><path
     fill="#000000"
     d="m 17.05,66.005472 -0.3,0.2 -7.7,5.7 c -0.6,0.4 -0.7,1.3 -0.3,1.9 0.3,0.4 0.7,0.5 1.1,0.5 0.3,0 0.6,-0.1 0.8,-0.3 l 7.8,-5.8 0.2,-0.2 c 0.6,-0.4 0.7,-1.3 0.3,-1.9 -0.4,-0.5 -1.3,-0.6 -1.9,-0.1 z"
     id="path12"
     style="fill:#ffcc00" /><path
     fill="#000000"
     d="m 32.25,76.705472 c -0.7,-0.3 -1.5,0 -1.8,0.7 v 0 l -4,9.1 c -0.3,0.7 0,1.5 0.7,1.8 0.2,0.1 0.4,0.1 0.5,0.1 0.5,0 1,-0.3 1.2,-0.8 l 4,-9.2 c 0,0 0,0 0,0 0.4,-0.7 0.1,-1.5 -0.6,-1.7 z"
     id="path14"
     style="fill:#ffcc00" /><path
     fill="#000000"
     d="m 88.55,40.105472 -5.8,0.7 c -1.8,-2.3 -3.8,-4.3 -6.2,-6 -2.3,-1.6 -4.8,-2.9 -7.5,-3.9 -3.7,-5.9 -9.5,-10.5 -16.6,-12.5 -2.6,-0.7 -5.3,-1.1 -8,-1.1 -12.9,0 -24.4,8.7 -28,21.2 -4.2,14.9 4.1,30.4 18.6,35.4 1.5,2.4 3.4,4.5 5.5,6.4 5.1,4.5 11.8,7.2 19.1,7.2 16,0 29.1,-13 29.1,-29.1 0,-5.5 -1.6,-10.7 -4.3,-15.1 l 4.3,-0.5 c 0.7,-0.1 1.3,-0.7 1.2,-1.5 0,-0.8 -0.7,-1.3 -1.4,-1.2 z m -2.8,22.5 c -0.1,0.9 -0.3,1.8 -0.6,2.6 -1.9,6.9 -6.4,12.7 -12.5,16.1 -0.8,0.4 -1.6,0.8 -2.4,1.2 -3.2,1.4 -6.8,2.2 -10.5,2.2 -5.3,0 -10.3,-1.6 -14.5,-4.3 -2.3,-1.5 -4.4,-3.4 -6.1,-5.6 -0.4,-0.5 -0.8,-1.1 -1.2,-1.6 -0.4,-0.5 -0.7,-1.1 -1,-1.7 -2.3,-3.9 -3.6,-8.4 -3.6,-13.2 0,-14.6 11.8,-26.4 26.4,-26.4 2.7,0 5.2,0.4 7.6,1.1 0.6,0.2 1.3,0.4 1.9,0.7 0.6,0.3 1.3,0.5 1.9,0.8 2.5,1.2 4.8,2.8 6.8,4.7 0.6,0.6 1.2,1.2 1.7,1.8 0.7,0.8 1.3,1.6 1.9,2.5 2.9,4.2 4.5,9.3 4.5,14.8 0.1,1.5 -0.1,2.9 -0.3,4.3 z"
     id="path16"
     style="fill:#ffcc00" /><path
     fill="#000000"
     d="m 59.641801,29.263267 c -16.040662,0 -29.107492,13.06683 -29.107492,29.107494 0,16.040661 12.976715,29.107495 29.107492,29.107495 16.130775,0 29.107495,-13.066834 29.107495,-29.107495 0,-16.040662 -13.06683,-29.107493 -29.107495,-29.107494 z"
     id="path12-3-7"
     style="fill:#4d4d4d;stroke-width:0.999999"
     sodipodi:nodetypes="sssss" /><path
     fill="#000000"
     d="m 72.25,27.605472 c 0.2,0 0.5,-0.1 0.7,-0.2 0,0 0.1,0 0.1,0 l 8,-5.9 c 0.6,-0.4 0.7,-1.3 0.3,-1.9 -0.4,-0.6 -1.3,-0.7 -1.9,-0.3 l -8,5.9 c 0,0 -0.1,0.1 -0.1,0.1 -0.5,0.5 -0.6,1.2 -0.2,1.8 0.3,0.3 0.7,0.5 1.1,0.5 z"
     id="path18"
     style="fill:#ffcc00" /><path
     fill="#000000"
     d="m 73.25,41.605472 c 0.3,-0.1 0.6,-0.3 0.8,-0.6 0.1,-0.2 0.2,-0.5 0.2,-0.7 0,-0.4 -0.2,-0.8 -0.5,-1.2 -0.3,-0.4 -0.7,-0.8 -1.2,-1.1 -0.1,0 -0.1,0 -0.2,-0.1 -0.2,-0.1 -0.3,-0.1 -0.5,-0.2 -0.4,-0.1 -0.7,-0.2 -1,-0.2 -0.1,0 -0.2,0 -0.3,0 -0.4,0 -0.7,0.2 -1,0.4 -0.1,0.1 -0.3,0.2 -0.4,0.4 -0.4,0.7 -0.1,1.6 0.6,2.4 0.2,0.2 0.4,0.3 0.6,0.5 0.1,0.1 0.2,0.1 0.2,0.2 0.4,0.2 0.8,0.4 1.2,0.4 0.6,0 1.1,0 1.5,-0.2 z"
     id="path20"
     style="fill:#333333" /><path
     fill="#000000"
     d="m 53.65,45.605472 c 0,0 0,0 0,0 v 0 c 0,0.3 0,0.6 0.1,0.9 0.2,0.8 0.6,1.6 1.3,2 1.1,0.6 2.6,0.3 3.7,-0.6 0.3,-0.1 0.7,-0.2 0.9,-0.3 0.9,-0.5 1.4,-1.4 1.4,-2.5 0,-0.4 -0.1,-0.8 -0.3,-1.2 -0.2,-0.4 -0.4,-0.7 -0.7,-0.9 -0.2,-0.6 -0.6,-1 -1.1,-1.3 -0.3,-0.2 -0.7,-0.3 -1,-0.3 -1.1,-0.1 -2.2,0.4 -3.1,1.3 v 0 c -0.3,-0.3 -0.8,-0.6 -1.3,-0.6 -0.5,0 -0.9,0.2 -1.3,0.5 -0.3,0.3 -0.5,0.8 -0.5,1.3 0,0.5 0.2,0.9 0.5,1.3 0.5,0.2 0.9,0.4 1.4,0.4 z"
     id="path22"
     style="fill:#333333" /><path
     fill="#000000"
     d="m 69.05,44.305472 c -0.5,-0.3 -1.1,-0.5 -1.8,-0.5 v 0 c -0.5,0 -1.1,0.1 -1.5,0.4 -0.4,0.2 -0.8,0.6 -1.1,1 -2,0.1 -3.6,1.8 -3.6,3.9 0,1.7 1.1,3.1 2.5,3.6 0.1,-0.5 0.5,-0.8 1,-0.8 0.5,0 1,0.4 1.1,0.9 1.1,-0.2 2.1,-0.9 2.7,-1.9 0.2,-0.4 0.4,-0.8 0.4,-1.3 0.2,-0.1 0.5,-0.3 0.7,-0.5 0.6,-0.6 1,-1.4 1,-2.2 0,-0.4 -0.1,-0.8 -0.2,-1.2 -0.3,-0.6 -0.7,-1.1 -1.2,-1.4 z"
     id="path24"
     style="fill:#333333" /><path
     fill="#000000"
     d="m 76.65,44.705472 c -0.4,-0.2 -0.8,-0.2 -1.2,-0.2 -0.7,0 -1.3,0.3 -1.8,0.7 -0.1,0.1 -0.3,0.2 -0.4,0.3 -0.6,0.6 -0.9,1.4 -0.9,2.2 0,0.9 0.4,1.7 0.9,2.2 0.1,0.1 0.1,0.1 0.2,0.1 0.6,0.5 1.3,0.8 2,0.8 0.4,0 0.8,-0.1 1.2,-0.2 0.8,-0.3 1.4,-0.9 1.7,-1.7 0.2,-0.4 0.2,-0.8 0.2,-1.2 0,-0.4 -0.1,-0.8 -0.2,-1.2 -0.4,-0.9 -1,-1.5 -1.7,-1.8 z"
     id="path26"
     style="fill:#333333" /><path
     fill="#000000"
     d="m 73.85,54.605472 c -0.2,-0.1 -0.3,-0.1 -0.5,-0.1 -0.4,0 -0.7,0.1 -0.9,0.4 -0.1,0.1 -0.2,0.2 -0.2,0.4 0,0.1 -0.1,0.2 -0.1,0.3 0,0.1 -0.1,0.2 -0.1,0.3 0,0.4 0.1,0.7 0.4,0.9 0.2,0.2 0.6,0.4 0.9,0.4 0.2,0 0.4,0 0.5,-0.1 0.5,-0.2 0.8,-0.7 0.8,-1.2 0,-0.5 -0.3,-1.1 -0.8,-1.3 z"
     id="path28"
     style="fill:#333333" /><circle
     fill="#000000"
     cx="45.849998"
     cy="40.80547"
     r="1.3"
     id="circle30"
     style="fill:#333333" /><path
     fill="#000000"
     d="m 76.65,41.605472 c 0.2,0.1 0.3,0.1 0.5,0.1 0.2,0 0.4,-0.1 0.6,-0.2 -0.6,-0.6 -1.2,-1.2 -1.8,-1.8 -0.1,0.2 -0.1,0.4 -0.1,0.6 0,0.6 0.3,1.1 0.8,1.3 z"
     id="path32"
     style="fill:#333333" /><path
     fill="#000000"
     d="m 65.75,74.205472 c -0.2,0 -0.3,0.1 -0.4,0.2 -0.1,0.1 -0.2,0.3 -0.2,0.4 0,0.2 0.1,0.3 0.2,0.4 0.1,0.1 0.3,0.2 0.4,0.2 0.3,0 0.6,-0.3 0.6,-0.6 0,-0.3 -0.3,-0.6 -0.6,-0.6 z"
     id="path34"
     style="fill:#333333" /><path
     fill="#000000"
     d="m 56.55,51.405472 c -0.2,-0.1 -0.4,-0.1 -0.7,-0.1 -0.7,0 -1.3,0.3 -1.5,0.8 -0.1,0.2 -0.1,0.3 -0.1,0.5 0,0.2 0,0.3 0.1,0.5 0.3,0.5 0.8,0.8 1.5,0.8 0.2,0 0.5,0 0.7,-0.1 0.3,-0.1 0.6,-0.3 0.7,-0.5 0.1,-0.1 0.2,-0.2 0.2,-0.3 0,-0.1 0.1,-0.2 0.1,-0.4 0,-0.2 0,-0.3 -0.1,-0.4 0,-0.1 -0.1,-0.2 -0.2,-0.3 -0.2,-0.3 -0.4,-0.4 -0.7,-0.5 z"
     id="path36"
     style="fill:#333333" /><path
     fill="#000000"
     d="m 61.25,68.405472 c -0.1,-0.2 -0.3,-0.4 -0.5,-0.6 -0.1,-0.1 -0.3,-0.3 -0.5,-0.4 -0.6,-0.4 -1.3,-0.7 -2.1,-0.7 -2,0 -3.7,1.6 -3.7,3.7 0,0.1 0,0.2 0,0.3 0,0.5 0.2,0.9 0.4,1.3 0.3,0.4 0.6,0.8 1.1,1 0.6,0.3 1.3,0.5 2.1,0.5 1,0 1.9,-0.3 2.6,-0.8 0.2,-0.1 0.3,-0.3 0.4,-0.4 0.4,-0.5 0.6,-1.1 0.6,-1.8 0,-0.3 0,-0.5 -0.1,-0.8 0.2,-0.5 0,-0.9 -0.3,-1.3 z"
     id="path38"
     style="fill:#333333" /><path
     fill="#000000"
     d="m 50.75,69.305472 c 0.2,0.2 0.4,0.4 0.7,0.6 0.3,0.1 0.6,0.2 0.9,0.2 0.6,0 1.1,-0.2 1.4,-0.6 0.4,-0.4 0.6,-0.9 0.6,-1.4 0,-0.5 -0.2,-1.1 -0.6,-1.4 -0.4,-0.4 -0.9,-0.6 -1.4,-0.6 v 0 c -0.8,0 -1.6,0.5 -1.9,1.2 v 0 c -0.3,-0.6 -0.7,-1.2 -1.2,-1.6 0,0 0,0 0,0 2.6,-0.5 4.6,-2.8 4.6,-5.5 0,-3.1 -2.5,-5.6 -5.6,-5.6 -0.6,0 -1.3,0.1 -1.8,0.3 0.8,-0.8 1.3,-1.9 1.3,-3.2 0,-0.2 0,-0.4 0,-0.6 0.2,-0.2 0.4,-0.4 0.5,-0.6 0.3,-0.4 0.5,-0.9 0.6,-1.5 0.1,-0.3 0.1,-0.5 0.1,-0.8 0,-2.2 -1.8,-4 -4,-4 v 0 c -0.5,0 -1,0.1 -1.5,0.3 -0.9,0.4 -1.7,1.1 -2.1,2 -0.2,0.4 -0.3,0.8 -0.4,1.3 0.8,0.1 1.5,0.8 1.5,1.7 0,0.9 -0.8,1.7 -1.7,1.7 -0.7,0 -1.3,-0.5 -1.6,-1.1 -0.2,0.5 -0.4,1.1 -0.4,1.7 0,0.9 0.3,1.7 0.7,2.4 -0.3,0.3 -0.5,0.3 -0.8,0.3 -0.3,-0.1 -0.5,-0.2 -0.8,-0.5 -0.4,-0.4 -0.7,-0.9 -0.9,-1.3 -0.1,-0.1 -0.1,-0.3 -0.2,-0.4 -0.1,-0.3 -0.2,-0.6 -0.3,-0.8 -0.1,-0.3 -0.1,-0.5 -0.2,-0.7 -0.7,2.1 -1.1,4.3 -1.2,6.5 0,0.3 0,0.7 0,1 0,0.3 0,0.6 0,0.9 1,-0.3 2.2,0.6 2.6,2 0.4,1.4 0,2.8 -1,3.1 -0.3,0.1 -0.6,0.1 -0.9,0 0,0.1 0,0.2 0.1,0.3 0.6,2.1 1.4,4.1 2.5,5.9 0,-0.1 0.1,-0.3 0.2,-0.4 0.4,-0.3 1,-0.1 1.3,0.4 0.4,0.5 0.3,1.1 0,1.4 0,0 0,0 0,0 0.3,0.2 0.7,0.4 1.1,0.6 0.5,0.2 1,0.4 1.5,0.5 0.3,0.1 0.6,0 0.9,0 -0.3,0.2 -0.5,0.6 -0.5,1 0,0 0,0.1 0,0.1 0,0.6 0.5,1.1 1.2,1.1 0.6,0 1.1,-0.5 1.1,-1 0,0 0,-0.1 0,-0.1 0,-0.5 -0.3,-0.9 -0.8,-1.1 0.1,0 0.3,-0.1 0.4,-0.1 0.1,0 0.2,0 0.3,-0.1 0.1,0 0.1,0 0.2,0.1 0.5,0.2 0.9,0.3 1.5,0.3 0.7,0 1.4,-0.2 2,-0.6 0.7,-0.4 1.3,-0.9 1.7,-1.6 0,-0.7 0.2,-1.2 0.3,-1.7 z m -7,-2.3 c -0.6,0 -1.1,-0.5 -1.1,-1.1 0,-0.6 0.5,-1.1 1.1,-1.1 0.6,0 1.1,0.5 1.1,1.1 0,0.6 -0.5,1.1 -1.1,1.1 z m 3.6,-3.7 c -0.9,0 -1.6,-0.7 -1.6,-1.6 0,-0.1 0,-0.2 0.1,-0.4 -0.2,0.2 -0.5,0.4 -0.9,0.5 -1.3,0.4 -2.6,-0.2 -2.9,-1.4 -0.2,-0.6 -0.1,-1.1 0.2,-1.6 -0.2,0 -0.4,0 -0.6,0 -0.2,-0.5 -0.5,-0.9 -0.8,-1.3 -0.3,-0.4 -0.7,-0.7 -1.1,-0.9 l 1.4,-0.9 c 0.6,0.3 1.3,0.5 2.1,0.5 v 0 c 0.4,0 0.9,-0.1 1.3,-0.2 -0.6,0.5 -1,1.2 -1.3,1.9 0.2,-0.1 0.3,-0.2 0.5,-0.2 1.3,-0.4 2.6,0.2 2.9,1.4 0.1,0.5 0.1,0.9 -0.1,1.3 0.2,-0.2 0.5,-0.3 0.8,-0.3 0.9,0 1.6,0.7 1.6,1.6 -0.1,0.9 -0.8,1.6 -1.6,1.6 z"
     id="path40"
     style="fill:#333333" /><path
     fill="#000000"
     d="m 53.45,77.205472 c 0.2,-0.3 0.4,-0.8 0.4,-1.2 0,-0.5 -0.2,-1 -0.6,-1.4 -0.2,-0.2 -0.4,-0.3 -0.7,-0.4 -0.2,-0.1 -0.4,-0.1 -0.7,-0.1 v 0 c -0.6,0 -1.1,0.3 -1.5,0.7 -0.3,0.3 -0.5,0.8 -0.4,1.3 0.1,0.8 1.1,0.9 2,1.6 0.2,0.2 0.4,0.2 0.6,0.2 0.3,-0.1 0.6,-0.3 0.9,-0.7 z"
     id="path42"
     style="fill:#333333" /><path
     fill="#000000"
     d="m 55.45,81.205472 c -0.4,-0.2 -1,-0.3 -1.5,-0.1 -0.5,0.2 -0.9,0.5 -1.2,0.9 1.2,0.3 2.4,0.6 3.7,0.8 v 0 c 0,-0.1 0,-0.3 -0.1,-0.4 -0.1,-0.5 -0.4,-0.9 -0.9,-1.2 z"
     id="path44"
     style="fill:#333333" /><path
     fill="#000000"
     d="m 59.641802,29.263268 c -16.040662,0 -29.107492,13.06683 -29.107492,29.107493 0,16.040661 12.976715,29.107495 29.107492,29.107495 16.130777,0 29.107493,-13.066834 29.107493,-29.107495 0,-16.040663 -13.066831,-29.107493 -29.107493,-29.107493 z m 0,55.511501 c -14.598805,0 -26.40401,-11.895321 -26.40401,-26.404008 0,-14.598805 11.895322,-26.40401 26.40401,-26.40401 14.508688,0 26.404009,11.895322 26.404009,26.40401 0,14.598804 -11.895321,26.404008 -26.404009,26.404008 z"
     id="path12-3"
     style="fill:#000000;stroke-width:0.999999" /></svg>
