<?xml version="1.0" encoding="UTF-8" standalone="no"?>
<svg
   version="1.1"
   x="0px"
   y="0px"
   viewBox="0 0 90.000001 90"
   enable-background="new 0 0 100 100"
   xml:space="preserve"
   id="svg48"
   sodipodi:docname="noun_Moon_139166.svg"
   width="90"
   height="90"
   inkscape:version="1.1.1 (3bf5ae0d25, 2021-09-20)"
   xmlns:inkscape="http://www.inkscape.org/namespaces/inkscape"
   xmlns:sodipodi="http://sodipodi.sourceforge.net/DTD/sodipodi-0.dtd"
   xmlns="http://www.w3.org/2000/svg"
   xmlns:svg="http://www.w3.org/2000/svg"><defs
     id="defs52" /><sodipodi:namedview
     id="namedview50"
     pagecolor="#ffffff"
     bordercolor="#666666"
     borderopacity="1.0"
     inkscape:pageshadow="2"
     inkscape:pageopacity="0.0"
     inkscape:pagecheckerboard="0"
     showgrid="false"
     fit-margin-top="0"
     fit-margin-left="0"
     fit-margin-right="0"
     fit-margin-bottom="0"
     inkscape:zoom="5.165068"
     inkscape:cx="39.980112"
     inkscape:cy="59.728158"
     inkscape:window-width="1920"
     inkscape:window-height="1015"
     inkscape:window-x="0"
     inkscape:window-y="0"
     inkscape:window-maximized="1"
     inkscape:current-layer="svg48" /><rect
     style="fill:#000000;fill-opacity:1;fill-rule:evenodd;stroke:none;stroke-width:0.999995;stroke-dasharray:5.99999, 5.99999;stop-color:#000000"
     id="rect3181"
     width="90"
     height="90"
     x="0"
     y="0"
     ry="14.564392" /><circle
     fill="#000000"
     cx="50.400002"
     cy="13.4"
     r="2"
     id="circle2"
     style="fill:#ffffff" /><circle
     fill="#000000"
     cx="14.299999"
     cy="81.699997"
     r="2"
     id="circle4"
     style="fill:#ffffff" /><circle
     fill="#000000"
     cx="4.1000004"
     cy="68.599998"
     r="1.3"
     id="circle6"
     style="fill:#ffffff" /><path
     d="m 18.2,33.2 c 0,0 -0.5,-0.5 -1.2,-0.8 -0.3,-0.2 -0.7,-0.3 -1.1,-0.4 -0.1,-0.1 -0.2,-0.2 -0.3,-0.3 -0.1,-0.4 -0.2,-0.8 -0.4,-1.1 -0.3,-0.7 -0.8,-1.2 -0.8,-1.2 0,0 -0.5,0.5 -0.8,1.2 -0.2,0.3 -0.3,0.7 -0.4,1.1 -0.1,0.1 -0.2,0.2 -0.3,0.3 -0.4,0.1 -0.8,0.2 -1.1,0.4 -0.7,0.3 -1.2,0.8 -1.2,0.8 0,0 0.5,0.5 1.2,0.8 0.3,0.2 0.7,0.3 1.1,0.4 0.1,0.1 0.2,0.2 0.3,0.3 0.1,0.4 0.2,0.8 0.4,1.1 0.3,0.7 0.8,1.2 0.8,1.2 0,0 0.5,-0.5 0.8,-1.2 0.2,-0.3 0.3,-0.7 0.4,-1.1 0.1,-0.1 0.2,-0.2 0.3,-0.3 0.4,-0.1 0.8,-0.2 1.1,-0.4 0.7,-0.3 1.2,-0.8 1.2,-0.8 z"
     id="path8"
     style="fill:#ffffff" /><path
     d="m 38.1,11.4 c 0,0 -5.9,-0.5 -6.6,-0.8 C 31.2,10.4 30.8,10.3 30.4,10.2 30.3,10.1 30.2,10 30.1,9.9 30,9.5 29.9,9.1 29.7,8.8 29.4,8 28.9,0 28.9,0 c 0,0 -0.5,8 -0.8,8.7 -0.2,0.3 -0.3,0.7 -0.4,1.1 -0.1,0.1 -0.2,0.2 -0.3,0.3 -0.4,0.1 -0.8,0.2 -1.1,0.4 -0.7,0.3 -7.2,0.8 -7.2,0.8 0,0 6.5,0.5 7.2,0.8 0.3,0.2 0.7,0.3 1.1,0.4 0.1,0.1 0.2,0.2 0.3,0.3 0.1,0.4 0.2,0.8 0.4,1.1 0.3,0.7 0.8,7.5 0.8,7.5 0,0 0.5,-6.8 0.8,-7.5 0.2,-0.3 0.3,-0.7 0.4,-1.1 0.1,-0.1 0.2,-0.2 0.3,-0.3 0.4,-0.1 0.8,-0.2 1.1,-0.4 0.7,-0.2 6.6,-0.7 6.6,-0.7 z"
     id="path10"
     style="fill:#ffffff" /><path
     fill="#000000"
     d="M 54.899999,25.4 C 37.099999,25.4 22.6,39.9 22.6,57.700001 22.6,75.5 37,90 54.9,90 72.800001,90 87.200001,75.5 87.200001,57.700001 87.200001,39.9 72.700001,25.4 54.899999,25.4 Z"
     id="path12-3"
     sodipodi:nodetypes="sssss"
     style="fill:#f2f2f2" /><path
     fill="#000000"
     d="M 54.9,25.4 C 37.1,25.4 22.6,39.9 22.6,57.7 22.6,75.5 37,90 54.9,90 72.8,90 87.2,75.5 87.2,57.7 87.2,39.9 72.7,25.4 54.9,25.4 Z m 0,61.6 C 38.7,87 25.6,73.8 25.6,57.7 25.6,41.5 38.8,28.4 54.9,28.4 71,28.4 84.2,41.6 84.2,57.7 84.2,73.9 71,87 54.9,87 Z"
     id="path12"
     style="fill:#808080" /><path
     fill="#000000"
     d="m 70.7,38.5 c 0.3,-0.5 0.3,-1.1 0,-1.7 -0.3,-0.6 -0.9,-1.2 -1.6,-1.6 -1.5,-0.9 -3.2,-0.8 -3.7,0.2 -0.3,0.5 -0.3,1.1 0,1.7 0.1,0.3 0.4,0.6 0.6,0.9 0.3,0.3 0.6,0.5 1,0.8 0.7,0.4 1.5,0.6 2.2,0.6 0.7,-0.1 1.3,-0.4 1.5,-0.9 z"
     id="path14"
     style="fill:#808080" /><path
     fill="#000000"
     d="m 46.6,42.8 c 0.4,0.4 0.9,0.7 1.5,0.7 v 0 c 0,0 0,0 0,0 -0.1,1.3 0.5,2.6 1.5,3.2 0.3,0.2 0.6,0.3 1,0.3 1,0.2 2.2,-0.2 3.1,-1 0.8,-0.1 1.4,-0.5 1.9,-1.1 0.5,-0.6 0.8,-1.3 0.8,-2.1 C 56.4,41.9 56,41 55.3,40.4 55.2,40.1 55,39.8 54.8,39.6 54.6,39.3 54.3,39.1 54.1,39 53.8,38.8 53.4,38.7 53,38.6 c -0.4,0 -0.8,0 -1.2,0.1 -0.8,0.2 -1.6,0.7 -2.2,1.4 -0.2,-0.2 -0.4,-0.3 -0.6,-0.4 -0.2,-0.1 -0.5,-0.2 -0.8,-0.2 -0.8,0 -1.5,0.5 -1.8,1.2 -0.1,0.2 -0.2,0.5 -0.2,0.8 0,0.3 0.1,0.5 0.2,0.8 0,0.2 0.1,0.4 0.2,0.5 z"
     id="path16"
     style="fill:#808080" /><path
     fill="#000000"
     d="m 63.3,41.5 c -0.3,0 -0.6,0 -0.9,0.1 -0.6,0.1 -1.1,0.4 -1.5,0.8 -0.2,0.2 -0.4,0.4 -0.5,0.6 -2.2,0.2 -4,2 -4,4.3 0,1.8 1.1,3.3 2.6,4 0.1,0 0.1,0 0.2,0.1 0.1,-0.5 0.6,-0.9 1.1,-0.9 0.6,0 1.1,0.5 1.2,1 1.8,-0.3 3.2,-1.7 3.5,-3.5 1.1,-0.6 1.8,-1.7 1.8,-3 0,-1 -0.4,-1.8 -1,-2.5 -0.7,-0.6 -1.6,-1 -2.5,-1 z"
     id="path18"
     style="fill:#808080" /><path
     fill="#000000"
     d="m 75.1,43.7 c -0.4,-0.5 -0.8,-0.9 -1.4,-1.2 -0.4,-0.2 -0.9,-0.3 -1.4,-0.3 -0.5,0 -0.9,0.1 -1.4,0.3 -0.8,0.4 -1.5,1 -1.9,1.9 -0.2,0.4 -0.3,0.9 -0.3,1.4 0,0.5 0.1,0.9 0.3,1.4 0.4,0.8 1,1.5 1.9,1.9 0.4,0.2 0.9,0.3 1.4,0.3 1,0 1.8,-0.4 2.5,-1 0.6,-0.6 1,-1.5 1,-2.5 0,-0.9 -0.3,-1.6 -0.7,-2.2 z"
     id="path20"
     style="fill:#808080" /><path
     fill="#000000"
     d="m 70,53.4 c -0.2,0 -0.4,0 -0.6,0.1 -0.5,0.2 -0.9,0.8 -0.9,1.4 0,0.6 0.4,1.1 0.9,1.4 0.2,0.1 0.4,0.1 0.6,0.1 0.8,0 1.5,-0.7 1.5,-1.5 0,-0.8 -0.6,-1.5 -1.5,-1.5 z"
     id="path22"
     style="fill:#808080" /><circle
     fill="#000000"
     cx="39.5"
     cy="38.200001"
     r="1.5"
     id="circle24"
     style="fill:#808080" /><path
     fill="#000000"
     d="m 74.2,39.2 c 0.3,0 0.5,-0.1 0.7,-0.2 -0.6,-0.7 -1.3,-1.3 -2,-2 v 0 c -0.1,0.2 -0.2,0.4 -0.2,0.7 0,0.4 0.2,0.8 0.4,1.1 0.4,0.3 0.7,0.4 1.1,0.4 z"
     id="path26"
     style="fill:#808080" /><circle
     fill="#000000"
     cx="61.599998"
     cy="76"
     r="0.60000002"
     id="circle28"
     style="fill:#808080" /><path
     fill="#000000"
     d="m 49.3,50.2 c -0.3,0.3 -0.5,0.6 -0.5,1 0,0.4 0.2,0.7 0.5,1 0.3,0.3 0.8,0.4 1.3,0.4 0.5,0 1,-0.2 1.3,-0.4 0.3,-0.3 0.5,-0.6 0.5,-1 0,-0.4 -0.2,-0.7 -0.5,-1 -0.3,-0.3 -0.8,-0.4 -1.3,-0.4 -0.5,0 -1,0.2 -1.3,0.4 z"
     id="path30"
     style="fill:#808080" /><path
     fill="#000000"
     d="m 53.2,67 v 0 c -2.2,0 -4.1,1.8 -4.1,4.1 0,2.2 1.8,3.4 4.1,3.4 v 0 c 1.4,0 2.6,-0.4 3.4,-1.3 0.4,-0.5 0.7,-1.2 0.7,-2.1 0,-0.8 -0.3,-1.6 -0.7,-2.3 -0.7,-1.1 -2,-1.8 -3.4,-1.8 z"
     id="path32"
     style="fill:#808080" /><path
     fill="#000000"
     d="m 44.9,69.9 c 0.4,0.5 1.1,0.9 1.8,0.9 0.3,0 0.6,-0.1 0.9,-0.2 0.8,-0.3 1.4,-1.1 1.4,-2.1 0,-0.6 -0.3,-1.2 -0.7,-1.6 -0.2,-0.2 -0.4,-0.4 -0.7,-0.5 -0.3,-0.1 -0.6,-0.2 -0.9,-0.2 -0.9,0 -1.7,0.6 -2.1,1.4 -0.1,-0.3 -0.3,-0.7 -0.5,-1 -0.2,-0.3 -0.5,-0.6 -0.8,-0.8 0,0 0,0 0,0 2.9,-0.5 5.1,-3.1 5.1,-6.1 0,-3.4 -2.8,-6.2 -6.2,-6.2 -0.4,0 -0.7,0 -1,0.1 -0.3,0.1 -0.7,0.1 -1,0.3 0.7,-0.7 1.2,-1.5 1.4,-2.5 0.1,-0.3 0.1,-0.7 0.1,-1 0,-0.2 0,-0.5 -0.1,-0.7 0.4,-0.4 0.8,-0.9 1,-1.4 C 42.8,47.8 43,47.2 43,46.5 43,44 41,42 38.5,42 c -0.3,0 -0.6,0 -0.9,0.1 -0.6,0.1 -1.1,0.3 -1.5,0.6 -0.5,0.3 -0.9,0.7 -1.2,1.1 -0.2,0.3 -0.4,0.6 -0.6,1 -0.1,0.4 -0.2,0.7 -0.3,1.1 v 0 c 0.9,0.1 1.7,0.9 1.7,1.9 0,1 -0.9,1.9 -1.9,1.9 -0.8,0 -1.5,-0.5 -1.8,-1.2 -0.2,0.6 -0.4,1.2 -0.4,1.9 0,1 0.3,1.9 0.8,2.7 -0.4,0.4 -0.9,0.4 -1.3,0.1 C 30.8,53 30.5,52.7 30.3,52.4 30.2,52.2 30.1,52.1 29.9,51.9 29.7,51.6 29.5,51.2 29.4,51 29.1,50.4 29,49.7 28.9,49.4 c -0.7,2.3 -1.2,4.7 -1.3,7.3 0,0.4 0,0.8 0,1.1 0,0.3 0,0.7 0,1 1.1,-0.3 2.4,0.6 2.9,2.2 0.5,1.6 0,3.1 -1.2,3.5 -0.3,0.1 -0.6,0.1 -1,0 0,0.1 0.1,0.2 0.1,0.4 0.6,2.3 1.6,4.5 2.7,6.6 0,-0.2 0.1,-0.3 0.2,-0.4 0.4,-0.3 1.1,-0.1 1.5,0.4 0.4,0.5 0.4,1.2 0,1.5 0,0 0,0 0,0 0,0 0,0 0,0 0.2,0.1 0.4,0.3 0.7,0.4 0.7,0.4 1.4,0.6 2.2,0.7 0.4,0.1 0.7,0 1,0 -0.5,0 -0.7,0.4 -0.7,0.9 0,0.7 0.6,1.3 1.3,1.3 0.7,0 1.3,-0.6 1.3,-1.3 0,-0.6 -0.4,-1 -0.9,-1.2 0.3,-0.1 0.5,-0.1 0.8,-0.2 0.3,0.1 0.6,0.2 0.9,0.3 0.3,0.1 0.6,0.1 0.9,0.1 2.4,-0.1 4.3,-1.8 4.6,-4.1 z m -7.7,-2.6 c -0.7,0 -1.2,-0.5 -1.2,-1.2 0,-0.7 0.5,-1.2 1.2,-1.2 0.7,0 1.2,0.5 1.2,1.2 0,0.7 -0.6,1.2 -1.2,1.2 z m 3.9,-4.1 c -1,0 -1.8,-0.8 -1.8,-1.8 0,-0.1 0,-0.3 0.1,-0.4 -0.3,0.2 -0.6,0.4 -1,0.5 -1.4,0.4 -2.8,-0.3 -3.2,-1.5 -0.2,-0.6 -0.1,-1.3 0.2,-1.8 -0.2,0 -0.4,0 -0.6,0 -0.4,-1 -1.2,-1.9 -2.1,-2.5 l 1.6,-1 v 0 c 0.3,0.2 0.7,0.3 1.1,0.4 0.4,0.1 0.8,0.1 1.2,0.1 0.5,0 1,-0.1 1.4,-0.2 -0.6,0.6 -1.1,1.3 -1.4,2.1 v 0 c 0.2,-0.1 0.3,-0.2 0.5,-0.3 1.4,-0.4 2.8,0.3 3.2,1.5 0.2,0.5 0.1,1 -0.1,1.5 0.3,-0.2 0.6,-0.3 0.9,-0.3 1,0 1.8,0.8 1.8,1.8 -0.1,1.1 -0.8,1.9 -1.8,1.9 z"
     id="path34"
     style="fill:#808080" /><path
     fill="#000000"
     d="m 48.3,77.4 c 0,-0.9 -0.5,-1.7 -1.3,-2 -0.3,-0.1 -0.5,-0.2 -0.8,-0.2 -1.2,0 -2.4,1 -2.2,2.2 0.1,0.8 1.3,1 2.2,1.8 0.1,0.1 0.2,0.2 0.4,0.2 0.1,0 0.2,0 0.4,0 0.1,0 0.2,-0.1 0.4,-0.1 0.1,-0.1 0.2,-0.1 0.3,-0.2 0.3,-0.5 0.6,-1.1 0.6,-1.7 z"
     id="path36"
     style="fill:#808080" /><path
     fill="#000000"
     d="m 50.8,83.6 c -0.4,-0.4 -0.9,-0.7 -1.5,-0.7 -0.3,0 -0.6,0 -0.9,0.1 -0.3,0.1 -0.5,0.2 -0.7,0.4 -0.2,0.2 -0.4,0.4 -0.5,0.6 1.3,0.4 2.7,0.7 4.1,0.9 0,-0.2 0,-0.3 -0.1,-0.5 0,-0.3 -0.2,-0.5 -0.4,-0.8 z"
     id="path38"
     style="fill:#808080" /></svg>
